<svg xmlns="http://www.w3.org/2000/svg" width="97.75" height="97.75"><path d="M46.774 47.62c.1-1.275.053-2.562.07-3.844l-.344-.08-1.75 4.937c1.797.54 1.906.513 2.023-1.012zm33.492 5.258c3.944-2.04 5.846-6.327 4.35-10.172-3.116 2.7-3.58 6.44-4.35 10.172zm-44.998-5.03l-.088-3.998-.357-.1-.972 2.548c-.396 1.45-.352 1.462 1.417 1.54zM48.875 0C21.883 0 0 21.882 0 48.875S21.883 97.75 48.875 97.75 97.75 75.868 97.75 48.875 75.867 0 48.875 0zM26.512 57.94c-.687.2-.905-.064-1.1-.7l-3.48-11.188c-.065.495-.147.902-.166 1.313l-.335 6.7c-.03.526-.086 1.096-.307 1.557-.162.332-.592.634-.96.746-.533.162-1.148.055-1.68.215-1.373.408-2.108-.3-2.735-1.362-.767-1.315-1.588-2.597-2.387-3.894l-.166.014.477 3.562c.107.686-.166 1.088-.763 1.34-.133.054-.253.13-.384.18-2.647 1.014-3.16.656-3.584-2.112-.6-3.993-.46-7.997-.318-12.003.008-.23.267-.554.488-.654.448-.2.944-.317 1.433-.396 1.96-.324 2.47-.064 3.383 1.673l2.704 5.195c.123.232.268.455.45.76.406-1.92.686-3.734 1.186-5.488.474-1.66 1.143-3.27 1.8-4.867.12-.3.646-.573.985-.575.955-.008 1.968-.04 2.838.275.53.2 1.04.94 1.215 1.54.602 2.076 1.072 4.2 1.56 6.298L29.2 57.24c-.784.2-1.747.42-2.697.7zm5.082-1.377c-1.814-1.16-2.542-2.637-2.5-4.674.037-2.397-.035-4.792.63-7.146.533-1.894 1.84-3.092 3.23-4.347 1.387-1.247 2.732-.773 4.24-.513 1.67.3 1.98 1.392 2.054 2.722.13 2.326.6 4.645.027 6.985-.142.593-.318.894-.937.86l-4.972-.26c-.2 1.56-.285 3.117.622 4.516.88 1.357 2.047 1.63 3.58.93 1.343-.6 2.777-.295 3.876.853-2.508 1.8-7.334 1.674-9.84.073zm15.786.788c-.76-.164-1.562-.154-2.313-.345-2.746-.7-4.38-3.088-4.477-5.944-.093-2.76.582-5.357 1.706-7.75.8-1.707 2.3-3.105 3.568-4.557.23-.265.965-.26 1.402-.14a14.59 14.59 0 0 1 2.763 1.051c.326.167.672.72.652 1.08-.076 1.5-.3 3-.445 4.52l-.478 5.482c-1.637 1.03-3.43.395-5.24.146-.58 1.767.253 3 1.274 4.185.843.97 1.934 1.015 3.027.63.658-.232 1.215-.734 1.85-1.04.28-.133.667-.17.965-.094.715.18 1.154.646 1.164 1.527-1.695.867-3.388 1.7-5.42 1.25zm15.956-7.972l-3.734.513c-.438.058-.8.026-.758.7.086 1.194.023 2.4.055 3.602l.148 3.718-2.835.47-.228-4.05-.328-4.12c-.9-.052-1.75-.125-2.592-.14-.8-.016-1.348-.255-1.274-1.16.063-.896.64-1.2 1.468-1.14l2.166.1-.824-8.067c-.146-1.908-.22-3.83-.172-5.74.05-2.028.92-2.503 2.762-1.676 1.9.85 1.793.95 1.75 2.976-.067 3.113.12 6.23.16 9.348.008.684-.2 1.367-.23 2.055-.014.264.184.538.287.808.144-.216.395-.423.414-.65.058-.658.488-.906.918-.576 1.06.812 2.02 1.755 3.02 2.648l-.173.373zm8.135 6.753c-.385.4-.873.854-1.4.975-.922.215-1.898.275-2.85.254-1.104-.027-1.812-.8-2.02-1.77-.556-2.515-.98-5.057-1.403-7.6-.123-.73-.097-1.488-.068-2.23.033-1.054.53-1.38 1.535-1.057.3.098.586.255.88.384 1.957.86 1.914.922 1.935 3.003.02 2.127.216 4.25.35 6.375.016.234.137.46.246.816 2.282-1.948 2.94-4.38 2.933-7.07-.005-.627-.224-1.26-.187-1.88.027-.45.228-.966.525-1.288.18-.2.727-.15 1.062-.057.508.14.972.422 1.46.633 1.13.484 1.38 1.318 1.336 2.52-.083 2.45-1.3 4.284-2.812 6.04-.537.627-.966 1.35-1.53 1.95zm14.853-3.688c-1.375 1.162-2.748 2.334-4.196 3.398-.545.4-1.304.506-1.98.753-.443 1.935-.185 4.722.88 9.075-1.104.032-2.188.104-3.272.06-.183-.01-.452-.506-.496-.805l-1.153-7.867c-.066-.435-.283-.932-.595-1.226-.923-.872-.85-1.534.285-2.125.212-.1.353-.476.403-.746.476-2.354.795-4.75 1.4-7.067.677-2.546 2.154-4.64 4.568-5.843.646-.323 1.565-.26 2.324-.15.714.106 1.37.602 2.084.77 1.943.45 2.407 2 2.584 3.6.348 3.14-.284 6.02-2.844 8.175z"/></svg>